<?xml version="1.0" encoding="UTF-8"?>
<svg id="Layer_1" data-name="Layer 1" xmlns="http://www.w3.org/2000/svg" viewBox="0 0 595.28 595.28">
  <defs>
    <style>
      .cls-1 {
        fill: #dcbc98;
      }

      .cls-2 {
        fill: #8a6a45;
      }

      .cls-3 {
        fill: #866640;
      }

      .cls-4 {
        fill: #ddbc99;
      }

      .cls-5 {
        fill: #836541;
      }

      .cls-6 {
        fill: #fdf6e8;
      }

      .cls-7 {
        fill: #fef7e9;
      }

      .cls-8 {
        fill: #896a45;
      }

      .cls-9 {
        fill: #ddbd97;
      }

      .cls-10 {
        fill: #fdf6e5;
      }

      .cls-11 {
        fill: #fef8e8;
      }

      .cls-12 {
        fill: #94724d;
      }

      .cls-13 {
        fill: #fef7e6;
      }

      .cls-14 {
        fill: #9e7b56;
      }

      .cls-15 {
        fill: #dfbe9d;
      }

      .cls-16 {
        fill: #dec2a4;
      }

      .cls-17 {
        fill: #856641;
      }

      .cls-18 {
        fill: #debe9d;
      }

      .cls-19 {
        fill: #7b603d;
      }

      .cls-20 {
        fill: #fef8e9;
      }

      .cls-21 {
        fill: #826440;
      }

      .cls-22 {
        fill: #8a6a46;
      }

      .cls-23 {
        fill: #94744c;
      }

      .cls-24 {
        fill: #fcf5e2;
      }

      .cls-25 {
        fill: #563515;
      }

      .cls-26 {
        fill: #95744f;
      }

      .cls-27 {
        fill: #debf9d;
      }

      .cls-28 {
        fill: #7d5f3e;
      }

      .cls-29 {
        fill: #fbf7e4;
      }

      .cls-30 {
        fill: #fed7aa;
      }

      .cls-31 {
        fill: #fef6e8;
      }

      .cls-32 {
        fill: #96744d;
      }

      .cls-33 {
        fill: #dcbe98;
      }
    </style>
  </defs>
  <circle class="cls-30" cx="297.64" cy="297.64" r="297.64"/>
  <g>
    <path class="cls-17" d="m423.7,267.88c.08,16.97.12,33.94.25,50.9.13,17.06,3.92,33.26,11.8,48.44,4.66,8.97,10.77,16.95,17.27,24.65,9.66,11.44,20.53,21.57,32.5,30.54,6.2,4.65,13,8.22,20.16,11.62-.82-3.41-1.32-6.73-1.58-10.12-.66-8.86,2.96-15.6,9.59-21.13,6.9-5.76,14.23-10.94,21.34-16.41,1.94-1.49,3.66-1.58,5.48.15,6.72,6.4,13.14,13.1,17.29,21.5,3.75,7.6,3.36,15.44.22,23.21-.35.88-1.12,1.61-1.03,2.77,3.17-1.79,6.24-3.59,9.36-5.26,2.31-1.24,4.77-2.01,7.47-1.91,4.72.19,7.43,4.46,5.33,8.68-2.36,4.75-6.46,7.88-10.72,10.75-12.3,8.3-25.94,10.9-40.54,9.43-20.36-2.05-39.12-9.44-57.75-17.26-16-6.72-30.7-15.75-44.31-26.36-26.45-20.62-44.49-46.78-50.55-80.35-.87-4.84-2.17-9.6-2.53-15.18-1.2,1.74-2.14,2.99-2.97,4.31-6.71,10.78-12.81,21.91-15.2,34.52-5.23,27.57.06,52.94,16.76,75.71,8.78,11.97,20.8,18.38,35.31,20.47,3.71.53,7.3,1.74,11.26,1.82-1.27,1.35-2.85.96-4.18,1.26-31.65,6.97-62.25,17.09-91.74,30.54-7.59,3.46-14.98,7.35-22.37,11.22-2.47,1.29-4.53,1.4-7.02.03-14.94-8.28-30.59-15.03-46.36-21.52-21.46-8.83-43.62-15.43-66.27-20.39-.78-.17-1.59-.23-2.71-.39,2.75-1.18,5.43-1.4,8.03-1.74,20.86-2.68,35.12-14.29,44.46-32.63,8.13-15.95,12.55-32.78,11.88-50.79-.53-14.19-4.66-27.33-11.77-39.57-.81-1.39-1.53-2.83-2.29-4.25-.22-1.07.47-1.03,1.07-.75.75.35.83,1.3,1.46,1.84-.66-1.61-1.39-3.2-2.11-4.78-1.28-2.78-1.5-2.82-3.67-1.25-.87-1.06-1.78-2.1-2.15-3.47-1.44-4.02-3.14-8.05-.23-12.12.83-1.15.6-1.8-.44-2.66-3.68-3.04-3.74-3.56-1.12-7.7.61-.96.58-1.82.18-2.78-.34-.83-.58-1.69-.42-2.61.41-2.35,2.18-3.08,4.09-1.68.5.37.9.88,1.42,1.22,2.6,2.92,5.13,5.89,6.56,9.61-1.01,1.45-1.67.2-2.21-.41-1.01-1.14-1.75-2.49-2.73-3.67-.55-.67-.94-1.56-2.34-1.73,5.77,9.02,11.68,17.64,17.74,26.18-1.8-3.56-3.69-7.07-5.88-10.41-1.27-1.95-2.69-3.82-3.69-5.94-.38-.81-1.02-2.01.89-1.81,1.82,1.42,2.83,3.47,4.03,5.34,10.95,17.07,19.15,35.33,23,55.31,1.92,9.94,2.88,19.99,2.01,30.2-.43,4.99-.59,10-1.42,14.95-4.32,17.36-11.21,33.5-22.55,47.54-.11.14-.24.27-.33.43-.68,1.31-2.98,2.04-2.42,3.49.47,1.2,2.6,1.3,4,1.9,2.98,1.26,6.07,2.24,9.03,3.52,1.75.75,3.1.37,4.34-.98,1.59-1.73,2.84-3.71,4.05-5.7,7.62-12.49,12.63-25.96,14.91-40.42,2.48-12.82,2.17-25.74.76-38.6-1.9-17.21-8.52-32.88-16.27-48.2-5.32-10.52-12.23-19.84-19.9-28.68-.82-.94-1.67-1.88-2.18-3.05.09-1.81-2.45-2.15-2.27-4.01.2-2.39-2.12-4.48-4.61-4.14-1.22.27-1.68-1.34-2.87-1.15-2.74-2.2-2.83-2.6-1.55-5.61,1.57-3.68,2.16-7.4.34-11.2-.42-.87-.93-1.91.08-2.7.99-.77,1.91-.1,2.69.47,1.75,1.26,3.61,2.35,5.4,3.56-.53-1.04-.42-1.8.79-2.16,3.01,1.2,5.07,3.67,7.26,5.83,13.35,13.17,25.45,27.34,33.91,44.25,8.75,17.48,14.68,35.86,17.17,55.28,1.18,9.19,1.44,18.44.99,27.67-.34,7.06-.46,14.17-1.73,21.16-1.01,4.01-1.55,8.1-2.14,12.18-1.56,10.85-5.93,20.62-11.2,30.09-4.26,7.65-4.41,5.78,2.72,9.41,4.8,2.44,9.55,4.98,14.31,7.48,1.6.84,3.02.78,4.57-.1,6.24-3.56,12.68-6.72,19.24-9.65,2.58-1.15,2.67-1.45,1.19-3.71-9.01-13.82-13.9-29.04-15.48-45.39-.04-.45-.22-.87-.31-1.31-1.1-8.55-1.96-17.15-1.76-25.74.67-27.7,5.72-54.44,19.21-79.02,7.22-13.17,15.44-25.66,26.32-36.25,8.82-8.58,17.8-16.96,27.19-24.9.34-.29.68-.58,1.04-.85,2.66-2.01,3.08-1.81,4.1,1.41,3.97,12.6,6.54,25.57,10.19,38.25,4.27,14.82,9.69,29.11,17.86,42.26,1.09,2.15,2.72,4,3.23,5.23-1.65-4.69-2.24-10.74-3.51-16.64-1.38-6.38-3.02-12.74-2.78-19.36.03-.73-.29-1.4-.41-2.11-1.09-9.85-1.02-19.8-2.79-29.59-.93-5.19-1.92-10.37-3.67-15.37-.32-.93-.62-1.87-.54-2.88.36-1.54,1.03-1.97,1.91-.37.91,1.65,1.37,3.5,1.88,5.3.46,1.61,1.05,2.05,2.86,1.44,5.47-1.85,11.06-2.7,16.88-1.53,2.27.46,3.06,1.36,2.7,3.53-.02.48-.03,1.04.24,1.55Z"/>
    <path class="cls-8" d="m233.23,270.51c-1.05.47-.47,1.64-1.02,2.47-2.1-.88-3.86-2.22-5.69-3.47-.57-.39-1.16-1.47-2.04-.66-.72.65.04,1.34.35,1.92,2.09,3.93,1.64,8-.26,11.63-1.44,2.76-.61,4.08,1.52,5.43.14.18.19.38.13.6-.18.3-.43.48-.79.49-1.23-.65-2.11-2.8-3.75-1.59s-1.06,3.05-.04,4.57c.87,1.29.17,2.06-.7,2.97-2.59,2.7-2.34,4.67,1.03,6.49,2.09,1.13,2.5,2.2.57,3.7-1.83,1.42-1.41,3.38-1.29,5.18.15,2.18.62,4.34.95,6.5-1.3,4.09-1.33,8.39-2.06,12.58-2.58,14.68-8.15,28.2-15.5,41.06-11.72,20.5-27.77,36.85-47.48,49.72-21.18,13.83-43.87,24.37-68.24,31.19-11.28,3.16-22.76,5.21-34.52,4.63-15.06-.75-27.68-6.93-37.91-17.93-3.01-3.24-3.43-5.83-1.94-8.21,1.76-2.8,5.07-3.76,9.11-2.49,1.62.51,3.21,1.16,4.71,1.95,2.77,1.46,5.45,3.08,8.24,4.67-6.21-12.38-3.87-23.66,4.13-34.31,3.41-4.54,7.19-8.71,11.27-12.64,1.74-1.68,3.5-2.41,5.71-.79,8.17,6,16.45,11.83,24,18.65,6.82,6.16,8.6,13.79,7.32,22.47-.36,2.45-.47,4.97-1.71,7.57,11.44-5.48,21.48-12.46,30.78-20.47,14.92-12.84,28.09-27.21,38.07-44.31,6.39-10.94,11.11-22.49,13-35.09.2-1.32.27-2.68.27-4.02,0-27.02-.09-54.04.6-81.05.13-5.12,1.21-10.12,3.16-14.9,1.53.19.87,1.29.77,2.04-1.07,7.48-1.1,7.59,6.23,8.78,4.35.7,8.53,1.86,12.68,3.25,1.84.62,3.26,1.55,3.22,3.71-.02,1.34,1.35,2.12,1.29,3.45-2.92,8.89-4.93,17.95-5.83,27.28-.67,6.87-.81,13.77-1.52,20.62-.62,5.23-1.13,10.48-1.83,15.71-1.14,8.52-3.23,16.83-5.17,24.53,1.51-3.05,4.07-6.23,5.65-9.96,9.39-16,15.78-33.11,19.31-51.33,1.71-8.8,4.22-17.42,7.03-25.94.88-2.67,1.75-2.99,3.69-1.09,4.1,4.02,8.41,7.8,12.69,11.6.85.74,1.84,1.49,1.81,2.84Z"/>
    <path class="cls-22" d="m245.98,185.43c3.16-1.01,6.34-1.95,9.46-3.04,10.16-3.53,16.71-12.53,16.95-23.25.03-1.35-.03-2.7.05-4.04.14-2.19-.79-3.77-2.51-5.04-15.84-11.7-24.85-27.54-27.9-46.81-1.69-10.71-1.57-21.44,1.3-32.01.19-.05.47-.05.49.06.5,3.19,3.14,3.17,5.45,3.71,2.69.63,5.44,1.01,7.99,2.15.84.38,1.54.14,2.26-.31,1.09-.68,1.39.11,1.64.95-.25,5.19-1.26,10.32-.95,15.55.73,12.63,3.88,24.53,11.58,34.73,6.2,8.22,14.4,13.74,25.02,13.91,11.28.18,19.85-5.34,26.28-14.39,6.72-9.48,9.88-20.13,11.13-31.62.81-7.48-.28-14.65-1.57-21.88.26-.95.58-1.95,1.68-.72.82.91,1.44.53,2.32.12,3.12-1.48,6.51-1.96,9.88-1.79,1.95.1,2.91-.03,2.58-2.23-.07-.48.08-1.11.88-.96,3.83,11.02,4.3,22.3,2.49,33.71-1.28,8.13-3.87,16.01-7.74,23.14-4.68,8.62-9.68,17.41-17.88,23.3-5.07,3.64-5.73,7.83-4.81,13.44,1.81,11.01,8.77,17.2,18.46,21.13,2.68,1.09,5.49,1.8,8.33,2.33-1.41,1.27-2.02,2.78-1.84,4.74.11,1.21-.26,2.5-.7,3.65-.79,2.08-.29,3.35,1.82,4.15.91.34,2.5.94.29,1.92-2.37.39-4.63-.32-6.86-.87-2.59-.65-4.67-.03-6.7,1.62-4.02,3.27-7.55,7.06-11.5,10.41-.88.75-1.6,1.69-2.75,2.07-.71.15-1.38.38-1.87.97-1.14,1.38-2.12,1.53-3-.28-.44-.9-1.29-.81-2.12-.59-1.07.28-2.03,1.52-3.23.61-1.23-.93-1.28-2.49-1.67-3.85-.09-.32.13-.66-.01-.99-.21.19-.02.71-.54.65-1.15-.65-.96-1.85-1.11-2.86-1.18-7.92-4.27-15.13-8.18-22.02-1.3-2.29-1.43-2.21-2.85.02-7.7,12.14-9.86,25.35-7.7,39.4.56,3.66,2.2,6.99,3.45,10.43.13.53.18,1.07.2,1.61.01.8.08,1.6.19,2.4.2,1.5-.27,2.51-2.06,2.2-1.86-.33-1.68.73-1.3,1.9.39,1.2,1.09,2.24,1.72,3.33.47.81,1.55,1.85.65,2.59-1.06.86-1.86-.51-2.6-1.18-1.72-1.57-3.31-3.27-4.44-5.34-.39-.7-.76-1.43-1.56-1.79-4.1-5.88-6.32-12.46-6.55-19.56-.12-3.8-1.24-6.61-4.25-9.03-4.88-3.92-9.61-8.04-14.13-12.39-1.24-1.19-2.52-1.58-4.14-.99-1.01.36-2.06.63-3.16.47-.98-.34-1.98-1.19-.41-1.58,4.48-1.1,4.61-3.79,4.02-7.66-.49-3.25,2.47-4.93,4.94-6.32,3.37-1.9,6.6-3.89,8.87-7.11-.29.36-.47.82-.83,1.13-5.69,4.97-12.47,7.56-19.78,8.94-.52.12-1.32.06-1.17-.94Z"/>
    <path class="cls-2" d="m149.69,463.95c12.51.57,24.69,3.09,36.83,5.96,22.4,5.29,44.36,11.93,65.25,21.7,13.16,6.15,26.2,12.58,39.2,19.07,3.2,1.6,5.83,1.68,9.06.01,26.29-13.57,53.72-24.43,81.81-33.59,12.61-4.11,25.54-7.28,38.61-9.65,6.94-1.26,13.91-2.55,20.98-2.96.54-.25,1.25-.31,1.37.3.76,3.91,3.75,6.61,5.4,10.04,1.49,3.08,3.06,6.1,3.6,9.51.23,1.48,1.1,1.85,2.36,2.09,3.08.57,5.99,1.81,9.09,2.35.46.08,1.17.33.86,1.04-.22.51-.77.24-1.19.13-5.87-.6-11.73-1.19-17.6-1.79-5.02-.29-10.04-.31-15.06.01-21.51.96-41.98,6.76-62.32,13.26-26.33,8.42-51.45,19.93-77.08,30.12-3.99,1.59-8.02,3.07-12.03,4.6-1.71-.05-3.43.03-3.31-2.55.05-1.09-1.09-1.56-1.89-2.11-3.52-2.41-7.5-3.89-11.53-5.07-4.64-1.36-9.33-2.59-14.09-3.51-.99-.19-2.01-.37-2.24-1.57-.16-.83-.66.16-.87-.22-1.37-2.04-1.33-4.46-1.61-6.72-.37-3.03-2-4.85-4.54-6.2-5-2.67-10.21-4.88-15.53-6.78-17.14-6.14-34.74-10.32-52.86-12.22-9.84-1.03-19.69-.87-29.53.26-1.16.13-2.32.21-3.49.02-1.53-.45-1.84-1.51-.33-2.01,3.47-1.15,3.56-3.7,3.86-6.7.45-4.55,2.31-8.76,4.59-12.73.44-.77,1.09-1.46,1.21-2.36.24-1.97,1.37-2.28,3.02-1.73Z"/>
    <path class="cls-21" d="m516.41,536.63c-7.84,8.67-18.02,13.49-28.77,17.26-15.04,5.28-30.62,7.54-46.51,7.8-17.88.3-35.71-.42-53.37-3.4-8.41-1.42-16.69-3.4-24.89-5.72-4.15-1.17-10.86,1.95-12.71,5.81-.57,1.18.05,1.86.93,2.45,1.72,1.16,3.58,2.09,5.56,2.69,10.56,3.19,21.18,6.16,32.13,7.75,1.21.17,2.39.51,3.57.86-17.64-.92-35.37-1.09-52.58-5.74-11.08-2.99-22.2-5.89-32.73-10.61-2.4-1.08-4.71-1.08-7.28-.27-21.67,6.91-43.81,11.71-66.37,14.68-7.03.93-14.08,1.6-21.17,1.73-1.12.02-2.27.25-3.88-.48,11.19-1.36,21.53-4.29,31.93-6.96,17.23-4.41,33.88-10.64,50.54-16.77,18.18-6.69,36.17-13.89,54.23-20.89,3.55-1.38,7.05-2.82,10.84-.82,1.16-.02,2.3.07,3.45.34,13.91,3.28,27.95,5.53,42.24,6.43,11.49.73,22.98.7,34.43.3,17.69-.62,34.92-4,51.16-11.41,2.61-1.19,5.16-2.52,7.56-4.12.91-.61,1.87-1.06,2.96-1.21.88-.57,1.7-1.27,2.65-1.68,1.97-.85,2.34-2,.98-3.68-.16-.96.47-.79.93-.57,1.82.9,2.03,3.32.43,4.59-.49.39-1.05.68-1.55,1.06-1.24.97-1.63,1.98-.52,3.4,3.51,4.51,6.44,9.46,10.35,13.66,1.44,1.55,2.18,3.05.32,5.22,1.39-.68,2.08-1.53,3.02-1.96.71-.31,1.57-1.12,2.12.26Z"/>
    <path class="cls-5" d="m245.36,521.29c.05-.17.09-.34.14-.52,3.86,2.43,8.44,2.5,12.66,3.72,5.93,1.7,11.79,3.45,16.92,7.05,1.01.71,1.8,1.19,1.33,2.74-.67,2.24,1.95.78,2.43,1.88-16.33,6.66-32.99,12.36-50.02,16.95-24.94,6.72-50.33,9.3-76.12,8.51-15.58-.47-30.92-2.16-45.62-7.68-6.44-2.42-12.68-5.27-18.47-9.03.54-1.75-.57-2.74-1.67-3.81-4.13-4.05-4.11-4.16.52-7.44,4.68-3.32,8.82-7.25,12.8-11.36.79-.81.79-1.23,0-1.89-.68-.57-1.38-1.17-1.74-2.01-.53-1.22.15-1.41,1.17-1.25,8.92,4.7,18.15,8.62,27.93,11.15,9.32,2.41,18.78,3.78,28.39,4.47,7.72.56,15.42.47,23.12.42,18.08-.12,35.99-1.84,53.5-6.6,2.83-.83,5.65-1.73,8.55-2.33,1.85-.4,3.33-1.21,4.18-2.97Z"/>
    <path class="cls-32" d="m98.87,517.36c.08,1.76,1.65,2.3,2.72,3.2.89.75,1.4,1.22-.12,1.76-.56.2-1.11.6-1.5,1.05-4.1,4.8-8.94,8.73-14.19,12.19-1.48.97-1.79,1.82-.36,3.09,1.14,1.01,2.04,2.33,3.28,3.17,1.81,1.23,1.32,2.1-.1,3.08-10.45-6.52-18.99-14.85-23.56-26.49-6.04-15.4-.38-32.07,13.95-42.08,8.79-6.14,18.79-9.19,29.19-11.11,13.33-2.45,26.76-2.53,40.22-1.63.43.03.85.23,1.28.35-1.23.09-1.87.1-2.27,1.92-.59,2.64-2.74,4.85-3.72,7.55-1.25,3.44-2.58,6.84-2.23,10.58.26,2.77-1.93,3-3.67,3.76-.41.18-1.72.11-.51,1.11-.33,1.3-1.5,1.1-2.4,1.28-5.54,1.11-10.98,2.53-16.33,4.41-8.82,3.09-16.22,8.28-22.78,14.81-.19.19-.38.38-.56.58-2.36,2.6-2.32,2.88.64,4.7.94.99,2.9.85,3.02,2.72Z"/>
    <path class="cls-26" d="m516.41,536.63c-1.66-.71-2.24.99-3.36,1.49-.96.43-1.46,1.59-2.63,1.64-.09-.2-.25-.45-.21-.5,3.17-3.41.47-5.71-1.65-7.93-3.58-3.76-5.95-8.41-9.28-12.37-1.54-1.83.93-3.17,2.45-4.16,1.84-1.2,1.95-2.66.21-4.04-.09-.07-.42.15-.64.24-9.74-11.23-22.36-17.32-36.6-20.54-.6-.14-1.19-.34-1.79-.51.13-.2,1.13-.47.38-.51-3.52-.19-6.58-2.16-10.09-2.36-1.25-.07-2.24-.5-2.2-2.55.06-2.92-1.34-5.75-2.93-8.22-1.96-3.04-2.82-6.81-6.05-9.02-.71-.49-.09-1.09.22-1.63.54-.94-.23-1.02-.83-1.18,4.27-1.15,8.7-1.15,13.04-1.31,14.82-.54,29.59.03,43.83,4.76,11.59,3.84,21.13,10.65,27.79,20.98,7.25,11.24,6.88,22.83.56,34.35-2.71,4.96-5.95,9.58-10.22,13.37Z"/>
    <path class="cls-12" d="m245.98,185.43c.37.53.86.55,1.42.37,5.75-1.81,11.75-2.94,16.57-7.06,1.25-1.07,2.96-1.49,3.36-3.43.11-.51.79-1.26,1.42-.85.7.46.46,1.31-.03,1.9-2.59,3.09-5.41,5.9-9.21,7.51-4.12,1.75-5.39,4.6-4.4,8.92.38,1.67.23,3.57-2.19,4.08-1.09.23-2.11.77-3.16,1.17.04.07.05.19.11.21.16.07.34.1.51.15-.22,1.36-1.44,1.16-2.31,1.4-3.02.85-6.11,1.43-9.16,2.17-2.95.72-5.9,1.48-8.62,2.21,3.82,1.44,7.21,3.97,10.67,6.34,6.44,4.41,12.66,9.12,18.39,14.44.52.49,1.1.93,1.4,1.61.18,1.48,1.11,2.6,1.79,3.84.71,1.28.68,2.15-1.22,2.22-3.29.13-6.45,4.49-5.57,7.54.29,1.02.48,2.01-.68,2.53-1.07.48-1.73-.27-2.08-1.13-.65-1.57-1.93-2.27-3.41-2.77-3.66-2.88-7.01-6.1-10.35-9.33-2.97-2.87-6.07-5.57-9.42-7.97-2.99-2.14-3.75-1.99-6.58.3-10.22,8.27-17.87,18.49-23.38,30.39-.67,1.44-.9,3.36-2.87,3.92-1.54-.83-1.87-2.18-1.66-3.79.17-1.36-.7-1.86-1.82-2.23-6.43-2.12-12.86-4.24-19.75-4.05-1.2.03-1.05-.75-1.03-1.41.1-2.75-.47-5.56.66-8.23.22-.52.41-1.01-.18-1.42,1.07-1.46.85-3.46,2.05-4.86,1.26-1.62,2.2-3.41,2.73-5.4,4.46-7.49,9.91-14.12,17.2-19.01,15.48-10.38,32.9-15.94,50.8-20.28Z"/>
    <path class="cls-27" d="m497.67,516.35c-6.57,5.19-14.18,8.26-22.07,10.74-10.1,3.16-20.41,5.33-30.94,6.37-9.64.95-19.33.52-29,.61-19.33.17-38.31-2.51-57.07-7.01-.95-.23-1.94-.37-2.72-1.03.41-1.06-1.09-.69-1.08-1.45,47.14-17.93,91.37-23.43,144.01-10.81.37,1.17-1.87,1.23-1.13,2.58Z"/>
    <path class="cls-23" d="m348.19,199.55c.23-.15.92-.11.58-.47-.37-.4-1.15-.38-1.68-.67-1.55-.85-2.91-1.34-1.69-3.93.89-1.89,1.56-4.37.68-6.94-.66-1.95,1.99-1.03,2.77-1.96,16.51,4.03,32.75,8.82,47.1,18.32,6.82,4.51,12.6,10.2,17.1,17.09.31,1.33,1.1,2.36,2.13,3.22.21.35.41.71.62,1.06.76,2.28,1.73,4.46,3.23,6.37,3.35,6.68,4.35,13.9,4.62,21.24.19,4.99.05,9.99.05,14.99-.1-.14-.32-.31-.29-.43.79-3.71-2.22-4.12-4.38-4.28-5.51-.4-11.07-.25-16.07,2.64-1.57.9-1.89-.16-2.24-1.2-.75-2.29-1.44-4.6-2.16-6.9-.36-1.14-.52-.52-.69.08-1.25-.22-1.31-1.37-1.63-2.24-5.21-13.72-14.36-24.44-25.37-33.84-2.16-1.84-4.14-1.52-6.4-1.02-1.11-.55-1.41-1.42-1.29-2.65.36-3.45-1.06-5.38-4.49-6.14-1.38-.3-1.94-1.13-1.95-2.46,1.98-2.76,4.92-3.82,7.32-4.57-4.69-.88-9.78-2.96-15.05-4.35-.46-.11-.76-.47-.82-.96Z"/>
    <path class="cls-14" d="m349.98,68.52c-.85,1.35.91,3.15-.44,4.18-1.19.91-2.56-.84-4-.41-3.21.94-6.93-.04-9.64,2.84-.92.98-1.49-.12-1.95-.91-.12-.22-.08-1.85-.75-.2-1.37-.25-1.37-1.52-1.77-2.45-2.88-6.79-6.84-12.73-12.7-17.4-14.77-11.78-36.69-9.35-48.34,5.53-3.78,4.82-7.06,9.93-8.4,16.06-.18.81-.24,1.85-1.42,2.03-.1-.23-.21-.46-.31-.7-1.21,1.87-2.46.91-4.1.45-3.5-.98-6.95-2.51-10.75-2.13-1.18.12-1.51-.65-1.6-1.65-.08-.85.29-1.8-.49-2.52,5.13-18.44,16.16-31.76,34.33-38.42,29.58-10.85,61.58,4.45,71.97,34.14.19.5.25,1.04.36,1.56Z"/>
    <path class="cls-8" d="m224.34,320.19c.61-.35.31-.86.32-1.38.03-1.43,1.12-1.78,1.91-.9,2.28,2.54,3.22,5.86,4.63,8.89.21.44,0,.9-.47,1.1-.72.32-.8-.43-1.18-.72-.79-.58-.03-2.62-1.96-2.07-1.08-1.63-2.16-3.27-3.25-4.92Z"/>
    <path class="cls-26" d="m430.26,488.17c5.02-.8,10.04-.78,15.06-.01-5.02,0-10.04.01-15.06.01Z"/>
    <path class="cls-17" d="m419.02,231.65c-1.98-1.67-2.97-3.83-3.23-6.37,1.37,1.97,2.43,4.1,3.23,6.37Z"/>
    <path class="cls-8" d="m177.99,224.73c-.02,2.25-1.01,4.01-2.73,5.4.71-1.9,1.56-3.73,2.73-5.4Z"/>
    <path class="cls-17" d="m415.18,224.21c-1.6-.48-2.26-1.59-2.13-3.22.89.96,1.61,2.02,2.13,3.22Z"/>
    <path class="cls-20" d="m364.5,220.4c2.68-1.91,4.75-.91,7.05,1.02,11.82,9.94,21.1,21.66,26.3,36.35,2.16,6.82,3.93,13.73,4.9,20.83,1.25,9.12,1.56,18.32,2.22,27.49.34,1.82.33,3.62-.06,5.66-1.31-.73-1.41-1.86-1.77-2.82-3.13-8.36-4.76-17.11-6.56-25.81-3.39-16.28-9.48-31.4-18.94-45.11-1.43-2.07-3.06-3.97-3.8-5.01,10.26,11.51,14.72,26.92,18.85,42.54,3.68,13.91,5.03,28.28,8.6,42.2,1.63,6.34,2.86,12.79,6.06,18.63.4.73,1.46,1.87-.22,2.57-10.51-16.5-16.18-34.89-20.97-53.62-2.52-9.86-4.9-19.76-7.93-29.67-5.95,4.59-11.4,9.64-16.94,14.61-8.63,7.74-17.09,15.64-24.17,24.86-17.75,23.12-28.68,49.06-32.56,78.02-2.1,15.65-2.37,31.26-.5,46.92.14,1.16.13,2.33.18,3.49.14,1.85.13,1.86-1.34,1.48-.36-.09-.71-.09-1.05.03-2.98,1.03-5.97,1.12-8.98.13-.75-.25-1.37.22-2.04.44-1.08.36-.95-.35-.75-1.03,1.26-10.8,1.96-21.63,1.63-32.49-1.21-39.17-14.09-73.82-40.31-103.25-5.73-6.44-11.82-12.52-18.16-18.36-5.53-5.09-11.06-10.17-16.7-15.35-2.77,7.55-4.66,15.26-6.63,22.95-2.7,10.58-4.45,21.41-8.5,31.64-3.41,8.6-7.55,16.84-12.01,24.93-1.73-.75-.82-2.15-.57-3.14.88-3.38,2.27-6.61,3.18-10,2.44-9.11,4.37-18.32,5.89-27.64,1.94-11.81,5.05-23.34,9.21-34.56,3.34-9.01,6.79-17.99,12.73-25.73,1.04-1.36,2.19-2.61,3.35-3.85-10.38,10.88-18.48,25.99-22.51,42.02-1.93,7.66-3.93,15.3-5.87,22.96-1.09,4.28-3.25,8.17-4.45,12.41-.09.31-.33.66-.98.55-.44-1.02-.31-2.11-.04-3.22.69-12.93,1.11-25.9,4.39-38.53.87-3.34,1.78-6.67,3.25-9.81,3.9-7.57,7.63-15.23,12.96-21.97,3.98-5.03,8.74-9.25,13.51-13.48,2.24-1.98,4.24-1.73,6.46-.04,6.46,4.9,12.25,10.53,17.96,16.24.5.5,1.07.95,1.6,1.42,3.53,2.49,6.11,5.91,8.87,9.15,11.67,13.69,20.37,29.15,27.05,45.8,4.08,9.22,6.52,18.96,9.2,28.62.81,2.93,1.78,5.82,2.44,8.84,2.02-6.77,3.18-13.81,5.4-20.45,3.69-11.02,7.79-21.94,13.41-32.19,3.75-6.22,6.99-12.74,10.96-18.83,3.63-5.57,7.72-10.81,12.26-15.65,7.25-7.72,15.17-14.75,22.82-22.05.74-.67,1.49-1.37,2.62-1.14Z"/>
    <path class="cls-1" d="m290.07,424.61c.03.08.06.17.09.25,2.08-1.6,3.97.16,5.95.33,2,.17,3.91-.25,5.74-.97,1.15-.45,1.83-.3,2.15,1.8.14-1.42.19-1.94.24-2.47,1.18,5.49,1.46,11.14,2.99,16.58,3.09,10.91,6.87,21.52,13.65,30.78,1.19,1.62.88,2.28-.86,3.04-7.31,3.2-14.44,6.77-21.4,10.66-1.53.86-2.81.72-4.26-.09-6.49-3.63-13.02-7.19-19.82-10.21-1.57-.7-1.58-1.32-.77-2.76,4.37-7.81,9.06-15.46,11.61-24.16,2.07-7.07,2.87-14.36,4.24-21.56.09-.41.3-.81.45-1.22Z"/>
    <path class="cls-24" d="m225.42,288.9c-.04-.48.27-.61.66-.64,3.94,1.72,6.53,4.94,9.09,8.19,5.73,6.76,11.68,13.4,16.34,20.96,10.61,17.21,18.85,35.5,22.2,55.55,2.38,14.27,2.66,28.71-.31,43.03-.18.07-.42.1-.49-.03-2.61-4.5-6.38-7.88-10.55-10.61.02.67.06,1.61-1.32,1.42-.04-.01-.08-.13-.08-.2,0-.09.06-.17.09-.25,1.02-9.55,1.74-19.09,1.26-28.72-.61-12.2-3.16-23.95-7.14-35.45-5.2-15.02-12.52-28.94-21.61-41.95-1.14-.33-1.37-1.27-1.53-2.26-2.16-3.04-3.98-6.33-6.61-9.04Z"/>
    <path class="cls-29" d="m320.91,416.03c-1.97-9.3-2.09-18.74-1.49-28.14,1.31-20.42,7.03-39.7,16.44-57.8,7.63-14.66,16.81-28.23,29.98-38.64,1.37-1.08,2.81-2.06,4.2-3.07-29.13,34.96-43.25,74.29-36.11,120.06.04.98-.68.81-.9.37-.89-1.77-1.76-.96-2.79-.18-1.2.91-2.43,1.83-3.76,2.51-2.3,1.17-3.81,3.16-5.57,4.89Z"/>
    <path class="cls-33" d="m261.04,406.34c1.22.03.72-1.38,1.46-1.74,4.3,3.17,8.71,6.23,10.89,11.41-2.03,13.15-6.4,25.49-12.94,37.07-1.85,3.28-3.75,6.53-6.19,9.42-1.37,1.62-2.77,2.14-4.93,1.2-4.9-2.12-9.93-3.94-15.06-5.94,12.04-12.25,18.97-27.31,24.38-43.21.92-2.7,1.6-5.47,2.39-8.21Z"/>
    <path class="cls-9" d="m320.91,416.03c.21-2.3,1.97-3.31,3.65-4.41,2.6-1.71,5.17-3.47,7.95-5.34.64.44-.15,2.24,1.42,2.16,2.17,6.64,4.29,13.29,7.07,19.71,4.38,10.13,9.97,19.48,17.62,27.51,1.23,1.29.93,1.72-.51,2.34-4.79,2.03-9.59,4.05-14.27,6.31-1.58.76-2.09.23-2.96-.9-6.67-8.71-11.62-18.31-15.12-28.68-2.06-6.12-3.89-12.3-4.85-18.7Z"/>
    <path class="cls-31" d="m545.56,416.01c0,8.99-4.47,14.14-11.04,14.87-7.37.82-13.16-3.13-14.67-10.02-.61-2.77.22-5.17,2.21-7.12,4.43-4.31,9.52-7.92,13.53-12.67.54-.64.9-.6,1.49-.01,4.76,4.76,8.28,10.11,8.48,14.95Z"/>
    <path class="cls-4" d="m407.13,338.95c.65-.47.22-.95-.03-1.39-5.01-9.09-6.62-19.22-8.58-29.17-3.05-15.48-5.41-31.12-10.36-46.16-3.73-11.34-8.08-22.45-16.45-31.47,1.43.7,2.41,1.78,3.29,3.04.87,1.25,1.91,2.37,2.81,3.6,7.74,10.6,13.47,22.22,16.89,34.87,2.49,9.2,4.25,18.6,6.51,27.86.88,3.62,2.23,7.13,3.78,10.7v-4.75c.85,4.19.61,8.51,1.53,12.71,1.65,7.51,3.05,15.07,4.57,22.61.4,1.99,1.06,3.91,1.67,5.89-2-2.73-4.22-5.26-5.63-8.34Z"/>
    <path class="cls-8" d="m232.02,297.97c.51.75,1.02,1.51,1.53,2.26-.43,1.79.95,2.89,1.77,4.08,2.93,4.29,5.39,8.85,8.01,13.32.39.67,1.48,1.63.49,2.3-.88.6-1.56-.5-2.05-1.24-4.64-6.88-9.24-13.78-13.92-20.63-1.08-1.57-1.44-3.65-3.38-4.66-.64-.33-.81-1.3-.29-1.91.66-.76,1.57-.5,2.11.16,1.37,1.64,2.62,3.38,3.93,5.07.46.6.54,1.78,1.8,1.25Z"/>
    <path class="cls-8" d="m228.21,288.79c.42-.53.44-1.57,1.68-.76,1.57,1.04,2.85,2.36,4.06,3.73,1.05,1.19-.61,1.01-.98,1.49-2.02-1.03-3.68-2.44-4.76-4.46Z"/>
    <path class="cls-25" d="m228.21,288.79c1.58,1.49,3.17,2.97,4.75,4.46.56,1.19,2.38,1.52,2.21,3.21-3.03-2.73-6.06-5.46-9.09-8.19.03-.15.02-.3,0-.45,1.1-.52,1.28.96,2.14.97Z"/>
    <path class="cls-11" d="m61.13,431.14c-8-.03-14.19-7.65-12.64-15.53,1.05-5.32,3.81-9.58,7.8-13.15,1.13-1.01,1.9-1.21,3.09.04,3.22,3.37,6.54,6.64,9.92,9.84,3.45,3.26,5.46,6.88,3.52,11.71-1.74,4.29-6.41,7.1-11.69,7.09Z"/>
    <path class="cls-16" d="m189.35,304.48c.05.89.11,1.77.19,3.24,1.13-5.17,3.56-9.25,4.74-13.82,2.6-10.11,4.74-20.35,8.1-30.25,3.63-10.69,8.75-20.6,15.82-29.42,1.77-2.21,4.07-4,6.45-6.29-.96,2.75-2.91,4.38-4.31,6.27-7.81,10.59-11.79,22.87-15.77,35.12-2.56,7.89-4.7,15.95-5.87,24.17-1.2,8.41-3.1,16.65-5.02,24.88-1.2,5.12-2.99,10.1-4.53,15.13-.14.46-.23.86.24,1.17-1.9,4.65-4.97,8.58-7.76,12.71,1.96-7.93,3.94-15.81,5.21-23.82.88-5.55,1.82-11.11,2.04-16.75.04-.81-.05-1.64.47-2.34Z"/>
    <path class="cls-7" d="m260.59,77.79c1.44-5.28,3.63-10.17,6.53-14.87,13.61-22.03,47.4-24.27,62.42,3.06,1.42,2.57,2.45,5.36,3.66,8.04,3.91,14.69,2.35,28.99-3.28,42.93-2.44,6.03-5.85,11.5-10.5,16.15-11.86,11.87-27.52,12.99-40.94,2.89-9.32-7.02-13.84-16.96-16.82-27.79-2.75-10.03-2.78-20.2-1.07-30.41Z"/>
    <path class="cls-13" d="m348.19,199.55c5.61,1.67,11.22,3.33,17,5.05-2.73,1.86-5.86,2.94-8.41,4.98-.43,1.23-1.61,1.64-2.57,2.25-7.58,4.84-14.76,10.16-21.13,16.55-5.78,5.8-11.13,11.93-15.41,18.93-4.81,7.88-9.95,15.58-13.02,24.39-2.45,6.63-4.8,13.29-6.08,20.27-.23,1.26-.22,3.29-1.67,3.26-1.41-.02-1.03-2.02-1.16-3.18-.31-2.78-1.59-5.3-2.01-8.04-2.39-10.31-6.65-19.85-11.95-28.96-5.07-8.71-10.75-16.94-18.22-23.83-1.29-1.18-2.66-2.41-3.17-4.23-9.63-8.88-19.85-16.94-31.89-23.04,3.74-.98,7.33-2.01,10.96-2.84,3.65-.84,7.35-1.48,10.92-2.68,4.73-2.06,7.89.12,11.11,3.5,3.45,3.62,7.45,6.73,11.34,9.9,2.63,2.15,3.88,4.7,3.9,8.12.05,7.46,2.63,14.19,6.39,20.52,3.84,5.4,7.77,10.73,11.79,16,2.32,3.03,2.76,3.04,5.07-.04,6.9-9.18,12.34-19.13,15.76-30.13.8-2.59,1.18-5.23,1.23-7.94.04-2.41.77-4.57,3.34-5.54,4.38-3.02,7.89-7.03,11.64-10.7,3.8-3.72,7.79-4.55,12.55-3.05,1.23.39,2.46.33,3.69.48Z"/>
    <path class="cls-10" d="m291.27,235c-8.57-19-4.68-36.7,5.87-53.76.7-.04.83.86,1.15,1.39,4.89,7.83,8.55,16.14,9.67,25.41.07.61.29,1.21.44,1.81,1.04,1.3.98,2.87.85,4.36-.48,5.72-1.37,11.37-3.58,16.72-.54,1.31-1.03,2.69-2.27,3.57-.66.27-1.05-.06-1.18-.66-1.25-5.79-2.92-11.46-4.78-17.09-.11-.32.12-.68-.05-.88-1.05,3.97-2.3,7.94-3.59,11.9-.69,2.12-1.8,4.12-1.71,6.46.04.45-.22.86-.82.77Z"/>
    <path class="cls-28" d="m303.05,234.43c4.25-7.66,5.4-16,5.36-24.6.05-.35.11-.7.16-1.06.84.13.42.88.65,1.31.94,1.76.63,5.23,4.42,2.45,1.44-1.06,3.26-.08,3.15,2.26,1.59-.3,1.61-2.73,3.52-1.99-1.75,1.33-2.52,3.07-2.53,5.28-.02,6.55-2.62,12.39-5.1,18.26-3.41,8.08-8.18,15.34-13.44,22.3-1.18,1.56-2.02,1.88-3.4.12-4.58-5.87-9.22-11.69-12.72-18.31,1.35-.66,1.18.74,1.46,1.23,1.6,2.8,3.86,4.93,6.4,6.86-1.09-2.22-2.66-4.17-3.27-6.6-.42-1.65.51-2.5,1.78-1.96,2.88,1.23,2.33-.2,1.83-1.93-.14-.49-.02-1.06-.02-1.6.85-.07,1.32.49,1.66,1.12,1.22,2.26,2.48,4.5,3.37,7.03,1.95-2.12,3.26-4.68,4.57-7.25.55-1.06.89-2.33,2.15-2.92Z"/>
    <path class="cls-15" d="m303.05,234.43c-1.64,4.04-3.75,7.8-6.58,11.27-2.17-3.01-3.02-6.49-5.17-9.23-.01-.5-.02-.99-.03-1.49.82-6.98,4.07-13.22,6.04-19.96,2.44,6.37,4.65,12.72,5.74,19.41Z"/>
    <path class="cls-6" d="m95.6,515.28c-4.14-2.33-4.03-2.23-.87-5.71,10.98-12.05,25.17-17.54,40.76-20.24.6-.1,1.19-.31,1.79-.46,5.45-.39,10.9-1.02,16.36-1.11,18.9-.3,37.27,3.07,55.38,8.22,10.47,2.97,20.64,6.63,30.32,11.65,2.69,1.4,4.4,3.11,4.66,6.29.2,2.48.89,4.92,1.36,7.37.35,1.75-.22,2.69-2.1,3.1-3.42.75-6.78,1.78-10.17,2.7-.72.31-1.34.29-.93-.69.32-.76,1.35-.79,2.18-1.51-5.15-2.77-10.48-4.83-15.9-6.57-12.14-3.89-24.42-7.19-37.16-8.5-12.13-1.25-24.27-2.46-36.47-1.84-15.5.79-30.85,2.93-46.08,5.95-1.2.24-1.99,1.15-3.13,1.35Z"/>
    <path class="cls-18" d="m95.6,515.28c.05-1.04.2-1.58,1.61-1.87,10.58-2.12,21.21-4.04,31.94-5.11,10.59-1.05,21.27-1.84,31.92-1.13,18.19,1.22,36.26,3.25,53.7,9.12,6.21,2.09,12.38,4.19,18.28,7.03,1.03.5,1.98,1.14,3.24,1.88-1.48.57-2.63,1.01-3.78,1.47,0,0,.02.2.07.23.16.08.33.13.5.19-7.12,2.54-14.56,3.71-21.99,4.75-15.38,2.15-30.87,2.5-46.37,2.21-22.32-.42-43.76-4.57-63.61-15.3-.77-.42-1.5-.92-2.25-1.39-1.08-.7-2.17-1.39-3.26-2.08Z"/>
    <path class="cls-3" d="m260.39,226.98c16.94,15.48,27.91,34.55,34.04,56.54-.45,1.74.43,3.25.84,4.84.19.73.44,1.47-.19,1.98-.78.62-1.26-.21-1.79-.62-2.18-1.72-4.65-1.11-5.69,1.54-.55,1.39-1.08,2.47-2.84,1.97-3.65-8.26-7.35-16.51-11.99-24.26-6.44-10.77-13.94-20.78-22.79-29.73-.24-.24-.34-.62-.51-.93,1.86.24,3.48.8,4.05,2.88.19.71.51,1.48,1.46,1.04.75-.34.65-1.07.23-1.6-1.99-2.55-.5-4.2,1.41-5.78.48-.4,1.01-.81,1.31-1.33,1.02-1.83,2.44-2.3,4.45-1.23.1-2.24-2.66-3.13-1.99-5.31Z"/>
    <path class="cls-22" d="m304.17,271.12c3.29-9.51,8.72-17.89,14.23-26.16,9.65-14.47,22.36-25.83,37.18-34.86.37-.23.81-.35,1.21-.53.81,1.19,1.61,2.01,3.39,1.63,1.65-.35,4.66,4.66,3.83,6.37-.59,1.23-.18,1.98.49,2.83-11.94,10.66-24.01,21.18-33.59,34.18-3.95,5.36-7.11,11.19-10.48,16.89-1.31,2.22-2.56,4.47-3.84,6.71-.61.13-.75.71-1.1,1.09-1.69,1.87-2.42,1.72-3.46-.66-1.03-2.36-4.46-3.48-6.62-2.15-.67.41-1.32,1.07-2.16.38s-.22-1.47-.07-2.22c.26-1.19,1.09-2.22.99-3.5Z"/>
    <path class="cls-19" d="m304.17,271.12c.77,1.38-.43,2.46-.58,3.7-.07.58-.7,1.21-.03,1.71.74.55,1.06-.31,1.51-.65.81-.61,1.6-2.17,2.58-1.24,1.6,1.51,4.95.8,5.12,3.94.1,1.83.63,1.57,1.91.86.68-.38.61-1.95,1.92-1.25-8.43,16.16-15.91,37.6-19.3,55.74-.99-3.34-1.82-6.02-2.57-8.73-2.97-10.76-5.84-21.56-9.96-31.96,1.55-.55,2.05-1.6,2.38-3.27.41-2.09,5.05-2.67,6.49-1.03.33.38.34,1.06,1.18,1.14.62-2.23-1.64-4.32-.39-6.55.73,3.72,2.37,7.25,2.53,11.2,1.59-8.14,3.96-16.01,7.21-23.61Z"/>
  </g>
</svg>