<?xml version="1.0" encoding="utf-8"?>
<!-- Generator: Adobe Illustrator 26.0.1, SVG Export Plug-In . SVG Version: 6.00 Build 0)  -->
<svg version="1.1" id="Layer_1" xmlns="http://www.w3.org/2000/svg" xmlns:xlink="http://www.w3.org/1999/xlink" x="0px" y="0px"
	 viewBox="0 0 595.28 595.28" style="enable-background:new 0 0 595.28 595.28;" xml:space="preserve">
<style type="text/css">
	.st0{fill:#856641;}
	.st1{fill:#896A45;}
	.st2{fill:#8A6A46;}
	.st3{fill:#8A6A45;}
	.st4{fill:#826440;}
	.st5{fill:#836541;}
	.st6{fill:#96744D;}
	.st7{fill:#95744F;}
	.st8{fill:#94724D;}
	.st9{fill:#DEBF9D;}
	.st10{fill:#94744C;}
	.st11{fill:#9E7B56;}
	.st12{fill:#FEF8E9;}
	.st13{fill:#DCBC98;}
	.st14{fill:#FCF5E2;}
	.st15{fill:#FBF7E4;}
	.st16{fill:#DCBE98;}
	.st17{fill:#DDBD97;}
	.st18{fill:#FEF6E8;}
	.st19{fill:#DDBC99;}
	.st20{fill:#563515;}
	.st21{fill:#FEF8E8;}
	.st22{fill:#DEC2A4;}
	.st23{fill:#FEF7E9;}
	.st24{fill:#FEF7E6;}
	.st25{fill:#FDF6E5;}
	.st26{fill:#7D5F3E;}
	.st27{fill:#DFBE9D;}
	.st28{fill:#FDF6E8;}
	.st29{fill:#DEBE9D;}
	.st30{fill:#866640;}
	.st31{fill:#7B603D;}
</style>
<g>
	<path class="st0" d="M423.7,267.88c0.08,16.97,0.12,33.94,0.25,50.9c0.13,17.06,3.92,33.26,11.8,48.44
		c4.66,8.97,10.77,16.95,17.27,24.65c9.66,11.44,20.53,21.57,32.5,30.54c6.2,4.65,13,8.22,20.16,11.62
		c-0.82-3.41-1.32-6.73-1.58-10.12c-0.66-8.86,2.96-15.6,9.59-21.13c6.9-5.76,14.23-10.94,21.34-16.41
		c1.94-1.49,3.66-1.58,5.48,0.15c6.72,6.4,13.14,13.1,17.29,21.5c3.75,7.6,3.36,15.44,0.22,23.21c-0.35,0.88-1.12,1.61-1.03,2.77
		c3.17-1.79,6.24-3.59,9.36-5.26c2.31-1.24,4.77-2.01,7.47-1.91c4.72,0.19,7.43,4.46,5.33,8.68c-2.36,4.75-6.46,7.88-10.72,10.75
		c-12.3,8.3-25.94,10.9-40.54,9.43c-20.36-2.05-39.12-9.44-57.75-17.26c-16-6.72-30.7-15.75-44.31-26.36
		c-26.45-20.62-44.49-46.78-50.55-80.35c-0.87-4.84-2.17-9.6-2.53-15.18c-1.2,1.74-2.14,2.99-2.97,4.31
		c-6.71,10.78-12.81,21.91-15.2,34.52c-5.23,27.57,0.06,52.94,16.76,75.71c8.78,11.97,20.8,18.38,35.31,20.47
		c3.71,0.53,7.3,1.74,11.26,1.82c-1.27,1.35-2.85,0.96-4.18,1.26c-31.65,6.97-62.25,17.09-91.74,30.54
		c-7.59,3.46-14.98,7.35-22.37,11.22c-2.47,1.29-4.53,1.4-7.02,0.03c-14.94-8.28-30.59-15.03-46.36-21.52
		c-21.46-8.83-43.62-15.43-66.27-20.39c-0.78-0.17-1.59-0.23-2.71-0.39c2.75-1.18,5.43-1.4,8.03-1.74
		c20.86-2.68,35.12-14.29,44.46-32.63c8.13-15.95,12.55-32.78,11.88-50.79c-0.53-14.19-4.66-27.33-11.77-39.57
		c-0.81-1.39-1.53-2.83-2.29-4.25c-0.22-1.07,0.47-1.03,1.07-0.75c0.75,0.35,0.83,1.3,1.46,1.84c-0.66-1.61-1.39-3.2-2.11-4.78
		c-1.28-2.78-1.5-2.82-3.67-1.25c-0.87-1.06-1.78-2.1-2.15-3.47c-1.44-4.02-3.14-8.05-0.23-12.12c0.83-1.15,0.6-1.8-0.44-2.66
		c-3.68-3.04-3.74-3.56-1.12-7.7c0.61-0.96,0.58-1.82,0.18-2.78c-0.34-0.83-0.58-1.69-0.42-2.61c0.41-2.35,2.18-3.08,4.09-1.68
		c0.5,0.37,0.9,0.88,1.42,1.22c2.6,2.92,5.13,5.89,6.56,9.61c-1.01,1.45-1.67,0.2-2.21-0.41c-1.01-1.14-1.75-2.49-2.73-3.67
		c-0.55-0.67-0.94-1.56-2.34-1.73c5.77,9.02,11.68,17.64,17.74,26.18c-1.8-3.56-3.69-7.07-5.88-10.41
		c-1.27-1.95-2.69-3.82-3.69-5.94c-0.38-0.81-1.02-2.01,0.89-1.81c1.82,1.42,2.83,3.47,4.03,5.34c10.95,17.07,19.15,35.33,23,55.31
		c1.92,9.94,2.88,19.99,2.01,30.2c-0.43,4.99-0.59,10-1.42,14.95c-4.32,17.36-11.21,33.5-22.55,47.54
		c-0.11,0.14-0.24,0.27-0.33,0.43c-0.68,1.31-2.98,2.04-2.42,3.49c0.47,1.2,2.6,1.3,4,1.9c2.98,1.26,6.07,2.24,9.03,3.52
		c1.75,0.75,3.1,0.37,4.34-0.98c1.59-1.73,2.84-3.71,4.05-5.7c7.62-12.49,12.63-25.96,14.91-40.42c2.48-12.82,2.17-25.74,0.76-38.6
		c-1.9-17.21-8.52-32.88-16.27-48.2c-5.32-10.52-12.23-19.84-19.9-28.68c-0.82-0.94-1.67-1.88-2.18-3.05
		c0.09-1.81-2.45-2.15-2.27-4.01c0.2-2.39-2.12-4.48-4.61-4.14c-1.22,0.27-1.68-1.34-2.87-1.15c-2.74-2.2-2.83-2.6-1.55-5.61
		c1.57-3.68,2.16-7.4,0.34-11.2c-0.42-0.87-0.93-1.91,0.08-2.7c0.99-0.77,1.91-0.1,2.69,0.47c1.75,1.26,3.61,2.35,5.4,3.56
		c-0.53-1.04-0.42-1.8,0.79-2.16c3.01,1.2,5.07,3.67,7.26,5.83c13.35,13.17,25.45,27.34,33.91,44.25
		c8.75,17.48,14.68,35.86,17.17,55.28c1.18,9.19,1.44,18.44,0.99,27.67c-0.34,7.06-0.46,14.17-1.73,21.16
		c-1.01,4.01-1.55,8.1-2.14,12.18c-1.56,10.85-5.93,20.62-11.2,30.09c-4.26,7.65-4.41,5.78,2.72,9.41c4.8,2.44,9.55,4.98,14.31,7.48
		c1.6,0.84,3.02,0.78,4.57-0.1c6.24-3.56,12.68-6.72,19.24-9.65c2.58-1.15,2.67-1.45,1.19-3.71c-9.01-13.82-13.9-29.04-15.48-45.39
		c-0.04-0.45-0.22-0.87-0.31-1.31c-1.1-8.55-1.96-17.15-1.76-25.74c0.67-27.7,5.72-54.44,19.21-79.02
		c7.22-13.17,15.44-25.66,26.32-36.25c8.82-8.58,17.8-16.96,27.19-24.9c0.34-0.29,0.68-0.58,1.04-0.85c2.66-2.01,3.08-1.81,4.1,1.41
		c3.97,12.6,6.54,25.57,10.19,38.25c4.27,14.82,9.69,29.11,17.86,42.26c1.09,2.15,2.72,4,3.23,5.23
		c-1.65-4.69-2.24-10.74-3.51-16.64c-1.38-6.38-3.02-12.74-2.78-19.36c0.03-0.73-0.29-1.4-0.41-2.11
		c-1.09-9.85-1.02-19.8-2.79-29.59c-0.93-5.19-1.92-10.37-3.67-15.37c-0.32-0.93-0.62-1.87-0.54-2.88c0.36-1.54,1.03-1.97,1.91-0.37
		c0.91,1.65,1.37,3.5,1.88,5.3c0.46,1.61,1.05,2.05,2.86,1.44c5.47-1.85,11.06-2.7,16.88-1.53c2.27,0.46,3.06,1.36,2.7,3.53
		C423.44,266.81,423.43,267.37,423.7,267.88z"/>
	<path class="st1" d="M233.23,270.51c-1.05,0.47-0.47,1.64-1.02,2.47c-2.1-0.88-3.86-2.22-5.69-3.47c-0.57-0.39-1.16-1.47-2.04-0.66
		c-0.72,0.65,0.04,1.34,0.35,1.92c2.09,3.93,1.64,8-0.26,11.63c-1.44,2.76-0.61,4.08,1.52,5.43c0.14,0.18,0.19,0.38,0.13,0.6
		c-0.18,0.3-0.43,0.48-0.79,0.49c-1.23-0.65-2.11-2.8-3.75-1.59c-1.64,1.21-1.06,3.05-0.04,4.57c0.87,1.29,0.17,2.06-0.7,2.97
		c-2.59,2.7-2.34,4.67,1.03,6.49c2.09,1.13,2.5,2.2,0.57,3.7c-1.83,1.42-1.41,3.38-1.29,5.18c0.15,2.18,0.62,4.34,0.95,6.5
		c-1.3,4.09-1.33,8.39-2.06,12.58c-2.58,14.68-8.15,28.2-15.5,41.06c-11.72,20.5-27.77,36.85-47.48,49.72
		c-21.18,13.83-43.87,24.37-68.24,31.19c-11.28,3.16-22.76,5.21-34.52,4.63c-15.06-0.75-27.68-6.93-37.91-17.93
		c-3.01-3.24-3.43-5.83-1.94-8.21c1.76-2.8,5.07-3.76,9.11-2.49c1.62,0.51,3.21,1.16,4.71,1.95c2.77,1.46,5.45,3.08,8.24,4.67
		c-6.21-12.38-3.87-23.66,4.13-34.31c3.41-4.54,7.19-8.71,11.27-12.64c1.74-1.68,3.5-2.41,5.71-0.79c8.17,6,16.45,11.83,24,18.65
		c6.82,6.16,8.6,13.79,7.32,22.47c-0.36,2.45-0.47,4.97-1.71,7.57c11.44-5.48,21.48-12.46,30.78-20.47
		c14.92-12.84,28.09-27.21,38.07-44.31c6.39-10.94,11.11-22.49,13-35.09c0.2-1.32,0.27-2.68,0.27-4.02
		c-0.01-27.02-0.09-54.04,0.6-81.05c0.13-5.12,1.21-10.12,3.16-14.9c1.53,0.19,0.87,1.29,0.77,2.04c-1.07,7.48-1.1,7.59,6.23,8.78
		c4.35,0.7,8.53,1.86,12.68,3.25c1.84,0.62,3.26,1.55,3.22,3.71c-0.02,1.34,1.35,2.12,1.29,3.45c-2.92,8.89-4.93,17.95-5.83,27.28
		c-0.67,6.87-0.81,13.77-1.52,20.62c-0.62,5.23-1.13,10.48-1.83,15.71c-1.14,8.52-3.23,16.83-5.17,24.53
		c1.51-3.05,4.07-6.23,5.65-9.96c9.39-16,15.78-33.11,19.31-51.33c1.71-8.8,4.22-17.42,7.03-25.94c0.88-2.67,1.75-2.99,3.69-1.09
		c4.1,4.02,8.41,7.8,12.69,11.6C232.27,268.41,233.26,269.16,233.23,270.51z"/>
	<path class="st2" d="M245.98,185.43c3.16-1.01,6.34-1.95,9.46-3.04c10.16-3.53,16.71-12.53,16.95-23.25
		c0.03-1.35-0.03-2.7,0.05-4.04c0.14-2.19-0.79-3.77-2.51-5.04c-15.84-11.7-24.85-27.54-27.9-46.81
		c-1.69-10.71-1.57-21.44,1.3-32.01c0.19-0.05,0.47-0.05,0.49,0.06c0.5,3.19,3.14,3.17,5.45,3.71c2.69,0.63,5.44,1.01,7.99,2.15
		c0.84,0.38,1.54,0.14,2.26-0.31c1.09-0.68,1.39,0.11,1.64,0.95c-0.25,5.19-1.26,10.32-0.95,15.55
		c0.73,12.63,3.88,24.53,11.58,34.73c6.2,8.22,14.4,13.74,25.02,13.91c11.28,0.18,19.85-5.34,26.28-14.39
		c6.72-9.48,9.88-20.13,11.13-31.62c0.81-7.48-0.28-14.65-1.57-21.88c0.26-0.95,0.58-1.95,1.68-0.72c0.82,0.91,1.44,0.53,2.32,0.12
		c3.12-1.48,6.51-1.96,9.88-1.79c1.95,0.1,2.91-0.03,2.58-2.23c-0.07-0.48,0.08-1.11,0.88-0.96c3.83,11.02,4.3,22.3,2.49,33.71
		c-1.28,8.13-3.87,16.01-7.74,23.14c-4.68,8.62-9.68,17.41-17.88,23.3c-5.07,3.64-5.73,7.83-4.81,13.44
		c1.81,11.01,8.77,17.2,18.46,21.13c2.68,1.09,5.49,1.8,8.33,2.33c-1.41,1.27-2.02,2.78-1.84,4.74c0.11,1.21-0.26,2.5-0.7,3.65
		c-0.79,2.08-0.29,3.35,1.82,4.15c0.91,0.34,2.5,0.94,0.29,1.92c-2.37,0.39-4.63-0.32-6.86-0.87c-2.59-0.65-4.67-0.03-6.7,1.62
		c-4.02,3.27-7.55,7.06-11.5,10.41c-0.88,0.75-1.6,1.69-2.75,2.07c-0.71,0.15-1.38,0.38-1.87,0.97c-1.14,1.38-2.12,1.53-3-0.28
		c-0.44-0.9-1.29-0.81-2.12-0.59c-1.07,0.28-2.03,1.52-3.23,0.61c-1.23-0.93-1.28-2.49-1.67-3.85c-0.09-0.32,0.13-0.66-0.01-0.99
		c-0.21,0.19-0.02,0.71-0.54,0.65c-1.15-0.65-0.96-1.85-1.11-2.86c-1.18-7.92-4.27-15.13-8.18-22.02c-1.3-2.29-1.43-2.21-2.85,0.02
		c-7.7,12.14-9.86,25.35-7.7,39.4c0.56,3.66,2.2,6.99,3.45,10.43c0.13,0.53,0.18,1.07,0.2,1.61c0.01,0.8,0.08,1.6,0.19,2.4
		c0.2,1.5-0.27,2.51-2.06,2.2c-1.86-0.33-1.68,0.73-1.3,1.9c0.39,1.2,1.09,2.24,1.72,3.33c0.47,0.81,1.55,1.85,0.65,2.59
		c-1.06,0.86-1.86-0.51-2.6-1.18c-1.72-1.57-3.31-3.27-4.44-5.34c-0.39-0.7-0.76-1.43-1.56-1.79c-4.1-5.88-6.32-12.46-6.55-19.56
		c-0.12-3.8-1.24-6.61-4.25-9.03c-4.88-3.92-9.61-8.04-14.13-12.39c-1.24-1.19-2.52-1.58-4.14-0.99c-1.01,0.36-2.06,0.63-3.16,0.47
		c-0.98-0.34-1.98-1.19-0.41-1.58c4.48-1.1,4.61-3.79,4.02-7.66c-0.49-3.25,2.47-4.93,4.94-6.32c3.37-1.9,6.6-3.89,8.87-7.11
		c-0.29,0.36-0.47,0.82-0.83,1.13c-5.69,4.97-12.47,7.56-19.78,8.94C246.63,186.49,245.83,186.43,245.98,185.43z"/>
	<path class="st3" d="M149.69,463.95c12.51,0.57,24.69,3.09,36.83,5.96c22.4,5.29,44.36,11.93,65.25,21.7
		c13.16,6.15,26.2,12.58,39.2,19.07c3.2,1.6,5.83,1.68,9.06,0.01c26.29-13.57,53.72-24.43,81.81-33.59
		c12.61-4.11,25.54-7.28,38.61-9.65c6.94-1.26,13.91-2.55,20.98-2.96c0.54-0.25,1.25-0.31,1.37,0.3c0.76,3.91,3.75,6.61,5.4,10.04
		c1.49,3.08,3.06,6.1,3.6,9.51c0.23,1.48,1.1,1.85,2.36,2.09c3.08,0.57,5.99,1.81,9.09,2.35c0.46,0.08,1.17,0.33,0.86,1.04
		c-0.22,0.51-0.77,0.24-1.19,0.13c-5.87-0.6-11.73-1.19-17.6-1.79c-5.02-0.29-10.04-0.31-15.06,0.01
		c-21.51,0.96-41.98,6.76-62.32,13.26c-26.33,8.42-51.45,19.93-77.08,30.12c-3.99,1.59-8.02,3.07-12.03,4.6
		c-1.71-0.05-3.43,0.03-3.31-2.55c0.05-1.09-1.09-1.56-1.89-2.11c-3.52-2.41-7.5-3.89-11.53-5.07c-4.64-1.36-9.33-2.59-14.09-3.51
		c-0.99-0.19-2.01-0.37-2.24-1.57c-0.16-0.83-0.66,0.16-0.87-0.22c-1.37-2.04-1.33-4.46-1.61-6.72c-0.37-3.03-2-4.85-4.54-6.2
		c-5-2.67-10.21-4.88-15.53-6.78c-17.14-6.14-34.74-10.32-52.86-12.22c-9.84-1.03-19.69-0.87-29.53,0.26
		c-1.16,0.13-2.32,0.21-3.49,0.02c-1.53-0.45-1.84-1.51-0.33-2.01c3.47-1.15,3.56-3.7,3.86-6.7c0.45-4.55,2.31-8.76,4.59-12.73
		c0.44-0.77,1.09-1.46,1.21-2.36C146.91,463.71,148.04,463.4,149.69,463.95z"/>
	<path class="st4" d="M516.41,536.63c-7.84,8.67-18.02,13.49-28.77,17.26c-15.04,5.28-30.62,7.54-46.51,7.8
		c-17.88,0.3-35.71-0.42-53.37-3.4c-8.41-1.42-16.69-3.4-24.89-5.72c-4.15-1.17-10.86,1.95-12.71,5.81
		c-0.57,1.18,0.05,1.86,0.93,2.45c1.72,1.16,3.58,2.09,5.56,2.69c10.56,3.19,21.18,6.16,32.13,7.75c1.21,0.17,2.39,0.51,3.57,0.86
		c-17.64-0.92-35.37-1.09-52.58-5.74c-11.08-2.99-22.2-5.89-32.73-10.61c-2.4-1.08-4.71-1.08-7.28-0.27
		c-21.67,6.91-43.81,11.71-66.37,14.68c-7.03,0.93-14.08,1.6-21.17,1.73c-1.12,0.02-2.27,0.25-3.88-0.48
		c11.19-1.36,21.53-4.29,31.93-6.96c17.23-4.41,33.88-10.64,50.54-16.77c18.18-6.69,36.17-13.89,54.23-20.89
		c3.55-1.38,7.05-2.82,10.84-0.82c1.16-0.02,2.3,0.07,3.45,0.34c13.91,3.28,27.95,5.53,42.24,6.43c11.49,0.73,22.98,0.7,34.43,0.3
		c17.69-0.62,34.92-4,51.16-11.41c2.61-1.19,5.16-2.52,7.56-4.12c0.91-0.61,1.87-1.06,2.96-1.21c0.88-0.57,1.7-1.27,2.65-1.68
		c1.97-0.85,2.34-2,0.98-3.68c-0.16-0.96,0.47-0.79,0.93-0.57c1.82,0.9,2.03,3.32,0.43,4.59c-0.49,0.39-1.05,0.68-1.55,1.06
		c-1.24,0.97-1.63,1.98-0.52,3.4c3.51,4.51,6.44,9.46,10.35,13.66c1.44,1.55,2.18,3.05,0.32,5.22c1.39-0.68,2.08-1.53,3.02-1.96
		C515,536.06,515.86,535.25,516.41,536.63z"/>
	<path class="st5" d="M245.36,521.29c0.05-0.17,0.09-0.34,0.14-0.52c3.86,2.43,8.44,2.5,12.66,3.72c5.93,1.7,11.79,3.45,16.92,7.05
		c1.01,0.71,1.8,1.19,1.33,2.74c-0.67,2.24,1.95,0.78,2.43,1.88c-16.33,6.66-32.99,12.36-50.02,16.95
		c-24.94,6.72-50.33,9.3-76.12,8.51c-15.58-0.47-30.92-2.16-45.62-7.68c-6.44-2.42-12.68-5.27-18.47-9.03
		c0.54-1.75-0.57-2.74-1.67-3.81c-4.13-4.05-4.11-4.16,0.52-7.44c4.68-3.32,8.82-7.25,12.8-11.36c0.79-0.81,0.79-1.23,0-1.89
		c-0.68-0.57-1.38-1.17-1.74-2.01c-0.53-1.22,0.15-1.41,1.17-1.25c8.92,4.7,18.15,8.62,27.93,11.15c9.32,2.41,18.78,3.78,28.39,4.47
		c7.72,0.56,15.42,0.47,23.12,0.42c18.08-0.12,35.99-1.84,53.5-6.6c2.83-0.83,5.65-1.73,8.55-2.33
		C243.03,523.86,244.51,523.05,245.36,521.29z"/>
	<path class="st6" d="M98.87,517.36c0.08,1.76,1.65,2.3,2.72,3.2c0.89,0.75,1.4,1.22-0.12,1.76c-0.56,0.2-1.11,0.6-1.5,1.05
		c-4.1,4.8-8.94,8.73-14.19,12.19c-1.48,0.97-1.79,1.82-0.36,3.09c1.14,1.01,2.04,2.33,3.28,3.17c1.81,1.23,1.32,2.1-0.1,3.08
		c-10.45-6.52-18.99-14.85-23.56-26.49c-6.04-15.4-0.38-32.07,13.95-42.08c8.79-6.14,18.79-9.19,29.19-11.11
		c13.33-2.45,26.76-2.53,40.22-1.63c0.43,0.03,0.85,0.23,1.28,0.35c-1.23,0.09-1.87,0.1-2.27,1.92c-0.59,2.64-2.74,4.85-3.72,7.55
		c-1.25,3.44-2.58,6.84-2.23,10.58c0.26,2.77-1.93,3-3.67,3.76c-0.41,0.18-1.72,0.11-0.51,1.11c-0.33,1.3-1.5,1.1-2.4,1.28
		c-5.54,1.11-10.98,2.53-16.33,4.41c-8.82,3.09-16.22,8.28-22.78,14.81c-0.19,0.19-0.38,0.38-0.56,0.58
		c-2.36,2.6-2.32,2.88,0.64,4.7C96.79,515.63,98.75,515.49,98.87,517.36z"/>
	<path class="st7" d="M516.41,536.63c-1.66-0.71-2.24,0.99-3.36,1.49c-0.96,0.43-1.46,1.59-2.63,1.64c-0.09-0.2-0.25-0.45-0.21-0.5
		c3.17-3.41,0.47-5.71-1.65-7.93c-3.58-3.76-5.95-8.41-9.28-12.37c-1.54-1.83,0.93-3.17,2.45-4.16c1.84-1.2,1.95-2.66,0.21-4.04
		c-0.09-0.07-0.42,0.15-0.64,0.24c-9.74-11.23-22.36-17.32-36.6-20.54c-0.6-0.14-1.19-0.34-1.79-0.51c0.13-0.2,1.13-0.47,0.38-0.51
		c-3.52-0.19-6.58-2.16-10.09-2.36c-1.25-0.07-2.24-0.5-2.2-2.55c0.06-2.92-1.34-5.75-2.93-8.22c-1.96-3.04-2.82-6.81-6.05-9.02
		c-0.71-0.49-0.09-1.09,0.22-1.63c0.54-0.94-0.23-1.02-0.83-1.18c4.27-1.15,8.7-1.15,13.04-1.31c14.82-0.54,29.59,0.03,43.83,4.76
		c11.59,3.84,21.13,10.65,27.79,20.98c7.25,11.24,6.88,22.83,0.56,34.35C523.92,528.22,520.68,532.84,516.41,536.63z"/>
	<path class="st8" d="M245.98,185.43c0.37,0.53,0.86,0.55,1.42,0.37c5.75-1.81,11.75-2.94,16.57-7.06c1.25-1.07,2.96-1.49,3.36-3.43
		c0.11-0.51,0.79-1.26,1.42-0.85c0.7,0.46,0.46,1.31-0.03,1.9c-2.59,3.09-5.41,5.9-9.21,7.51c-4.12,1.75-5.39,4.6-4.4,8.92
		c0.38,1.67,0.23,3.57-2.19,4.08c-1.09,0.23-2.11,0.77-3.16,1.17c0.04,0.07,0.05,0.19,0.11,0.21c0.16,0.07,0.34,0.1,0.51,0.15
		c-0.22,1.36-1.44,1.16-2.31,1.4c-3.02,0.85-6.11,1.43-9.16,2.17c-2.95,0.72-5.9,1.48-8.62,2.21c3.82,1.44,7.21,3.97,10.67,6.34
		c6.44,4.41,12.66,9.12,18.39,14.44c0.52,0.49,1.1,0.93,1.4,1.61c0.18,1.48,1.11,2.6,1.79,3.84c0.71,1.28,0.68,2.15-1.22,2.22
		c-3.29,0.13-6.45,4.49-5.57,7.54c0.29,1.02,0.48,2.01-0.68,2.53c-1.07,0.48-1.73-0.27-2.08-1.13c-0.65-1.57-1.93-2.27-3.41-2.77
		c-3.66-2.88-7.01-6.1-10.35-9.33c-2.97-2.87-6.07-5.57-9.42-7.97c-2.99-2.14-3.75-1.99-6.58,0.3
		c-10.22,8.27-17.87,18.49-23.38,30.39c-0.67,1.44-0.9,3.36-2.87,3.92c-1.54-0.83-1.87-2.18-1.66-3.79c0.17-1.36-0.7-1.86-1.82-2.23
		c-6.43-2.12-12.86-4.24-19.75-4.05c-1.2,0.03-1.05-0.75-1.03-1.41c0.1-2.75-0.47-5.56,0.66-8.23c0.22-0.52,0.41-1.01-0.18-1.42
		c1.07-1.46,0.85-3.46,2.05-4.86c1.26-1.62,2.2-3.41,2.73-5.4c4.46-7.49,9.91-14.12,17.2-19.01
		C210.66,195.33,228.08,189.77,245.98,185.43z"/>
	<path class="st9" d="M497.67,516.35c-6.57,5.19-14.18,8.26-22.07,10.74c-10.1,3.16-20.41,5.33-30.94,6.37
		c-9.64,0.95-19.33,0.52-29,0.61c-19.33,0.17-38.31-2.51-57.07-7.01c-0.95-0.23-1.94-0.37-2.72-1.03c0.41-1.06-1.09-0.69-1.08-1.45
		c47.14-17.93,91.37-23.43,144.01-10.81C499.17,514.94,496.93,515,497.67,516.35z"/>
	<path class="st10" d="M348.19,199.55c0.23-0.15,0.92-0.11,0.58-0.47c-0.37-0.4-1.15-0.38-1.68-0.67c-1.55-0.85-2.91-1.34-1.69-3.93
		c0.89-1.89,1.56-4.37,0.68-6.94c-0.66-1.95,1.99-1.03,2.77-1.96c16.51,4.03,32.75,8.82,47.1,18.32c6.82,4.51,12.6,10.2,17.1,17.09
		c0.31,1.33,1.1,2.36,2.13,3.22c0.21,0.35,0.41,0.71,0.62,1.06c0.76,2.28,1.73,4.46,3.23,6.37c3.35,6.68,4.35,13.9,4.62,21.24
		c0.19,4.99,0.05,9.99,0.05,14.99c-0.1-0.14-0.32-0.31-0.29-0.43c0.79-3.71-2.22-4.12-4.38-4.28c-5.51-0.4-11.07-0.25-16.07,2.64
		c-1.57,0.9-1.89-0.16-2.24-1.2c-0.75-2.29-1.44-4.6-2.16-6.9c-0.36-1.14-0.52-0.52-0.69,0.08c-1.25-0.22-1.31-1.37-1.63-2.24
		c-5.21-13.72-14.36-24.44-25.37-33.84c-2.16-1.84-4.14-1.52-6.4-1.02c-1.11-0.55-1.41-1.42-1.29-2.65
		c0.36-3.45-1.06-5.38-4.49-6.14c-1.38-0.3-1.94-1.13-1.95-2.46c1.98-2.76,4.92-3.82,7.32-4.57c-4.69-0.88-9.78-2.96-15.05-4.35
		C348.55,200.4,348.25,200.04,348.19,199.55z"/>
	<path class="st11" d="M349.98,68.52c-0.85,1.35,0.91,3.15-0.44,4.18c-1.19,0.91-2.56-0.84-4-0.41c-3.21,0.94-6.93-0.04-9.64,2.84
		c-0.92,0.98-1.49-0.12-1.95-0.91c-0.12-0.22-0.08-1.85-0.75-0.2c-1.37-0.25-1.37-1.52-1.77-2.45c-2.88-6.79-6.84-12.73-12.7-17.4
		c-14.77-11.78-36.69-9.35-48.34,5.53c-3.78,4.82-7.06,9.93-8.4,16.06c-0.18,0.81-0.24,1.85-1.42,2.03c-0.1-0.23-0.21-0.46-0.31-0.7
		c-1.21,1.87-2.46,0.91-4.1,0.45c-3.5-0.98-6.95-2.51-10.75-2.13c-1.18,0.12-1.51-0.65-1.6-1.65c-0.08-0.85,0.29-1.8-0.49-2.52
		c5.13-18.44,16.16-31.76,34.33-38.42c29.58-10.85,61.58,4.45,71.97,34.14C349.81,67.46,349.87,68,349.98,68.52z"/>
	<path class="st1" d="M224.34,320.19c0.61-0.35,0.31-0.86,0.32-1.38c0.03-1.43,1.12-1.78,1.91-0.9c2.28,2.54,3.22,5.86,4.63,8.89
		c0.21,0.44-0.01,0.9-0.47,1.1c-0.72,0.32-0.8-0.43-1.18-0.72c-0.79-0.58-0.03-2.62-1.96-2.07
		C226.51,323.48,225.43,321.84,224.34,320.19z"/>
	<path class="st7" d="M430.26,488.17c5.02-0.8,10.04-0.78,15.06-0.01C440.3,488.16,435.28,488.17,430.26,488.17z"/>
	<path class="st0" d="M419.02,231.65c-1.98-1.67-2.97-3.83-3.23-6.37C417.16,227.25,418.22,229.38,419.02,231.65z"/>
	<path class="st1" d="M177.99,224.73c-0.02,2.25-1.01,4.01-2.73,5.4C175.97,228.23,176.82,226.4,177.99,224.73z"/>
	<path class="st0" d="M415.18,224.21c-1.6-0.48-2.26-1.59-2.13-3.22C413.94,221.95,414.66,223.01,415.18,224.21z"/>
	<path class="st12" d="M364.5,220.4c2.68-1.91,4.75-0.91,7.05,1.02c11.82,9.94,21.1,21.66,26.3,36.35
		c2.16,6.82,3.93,13.73,4.9,20.83c1.25,9.12,1.56,18.32,2.22,27.49c0.34,1.82,0.33,3.62-0.06,5.66c-1.31-0.73-1.41-1.86-1.77-2.82
		c-3.13-8.36-4.76-17.11-6.56-25.81c-3.39-16.28-9.48-31.4-18.94-45.11c-1.43-2.07-3.06-3.97-3.8-5.01
		c10.26,11.51,14.72,26.92,18.85,42.54c3.68,13.91,5.03,28.28,8.6,42.2c1.63,6.34,2.86,12.79,6.06,18.63
		c0.4,0.73,1.46,1.87-0.22,2.57c-10.51-16.5-16.18-34.89-20.97-53.62c-2.52-9.86-4.9-19.76-7.93-29.67
		c-5.95,4.59-11.4,9.64-16.94,14.61c-8.63,7.74-17.09,15.64-24.17,24.86c-17.75,23.12-28.68,49.06-32.56,78.02
		c-2.1,15.65-2.37,31.26-0.5,46.92c0.14,1.16,0.13,2.33,0.18,3.49c0.14,1.85,0.13,1.86-1.34,1.48c-0.36-0.09-0.71-0.09-1.05,0.03
		c-2.98,1.03-5.97,1.12-8.98,0.13c-0.75-0.25-1.37,0.22-2.04,0.44c-1.08,0.36-0.95-0.35-0.75-1.03c1.26-10.8,1.96-21.63,1.63-32.49
		c-1.21-39.17-14.09-73.82-40.31-103.25c-5.73-6.44-11.82-12.52-18.16-18.36c-5.53-5.09-11.06-10.17-16.7-15.35
		c-2.77,7.55-4.66,15.26-6.63,22.95c-2.7,10.58-4.45,21.41-8.5,31.64c-3.41,8.6-7.55,16.84-12.01,24.93
		c-1.73-0.75-0.82-2.15-0.57-3.14c0.88-3.38,2.27-6.61,3.18-10c2.44-9.11,4.37-18.32,5.89-27.64c1.94-11.81,5.05-23.34,9.21-34.56
		c3.34-9.01,6.79-17.99,12.73-25.73c1.04-1.36,2.19-2.61,3.35-3.85c-10.38,10.88-18.48,25.99-22.51,42.02
		c-1.93,7.66-3.93,15.3-5.87,22.96c-1.09,4.28-3.25,8.17-4.45,12.41c-0.09,0.31-0.33,0.66-0.98,0.55c-0.44-1.02-0.31-2.11-0.04-3.22
		c0.69-12.93,1.11-25.9,4.39-38.53c0.87-3.34,1.78-6.67,3.25-9.81c3.9-7.57,7.63-15.23,12.96-21.97c3.98-5.03,8.74-9.25,13.51-13.48
		c2.24-1.98,4.24-1.73,6.46-0.04c6.46,4.9,12.25,10.53,17.96,16.24c0.5,0.5,1.07,0.95,1.6,1.42c3.53,2.49,6.11,5.91,8.87,9.15
		c11.67,13.69,20.37,29.15,27.05,45.8c4.08,9.22,6.52,18.96,9.2,28.62c0.81,2.93,1.78,5.82,2.44,8.84
		c2.02-6.77,3.18-13.81,5.4-20.45c3.69-11.02,7.79-21.94,13.41-32.19c3.75-6.22,6.99-12.74,10.96-18.83
		c3.63-5.57,7.72-10.81,12.26-15.65c7.25-7.72,15.17-14.75,22.82-22.05C362.62,220.87,363.37,220.17,364.5,220.4z"/>
	<path class="st13" d="M290.07,424.61c0.03,0.08,0.06,0.17,0.09,0.25c2.08-1.6,3.97,0.16,5.95,0.33c2,0.17,3.91-0.25,5.74-0.97
		c1.15-0.45,1.83-0.3,2.15,1.8c0.14-1.42,0.19-1.94,0.24-2.47c1.18,5.49,1.46,11.14,2.99,16.58c3.09,10.91,6.87,21.52,13.65,30.78
		c1.19,1.62,0.88,2.28-0.86,3.04c-7.31,3.2-14.44,6.77-21.4,10.66c-1.53,0.86-2.81,0.72-4.26-0.09
		c-6.49-3.63-13.02-7.19-19.82-10.21c-1.57-0.7-1.58-1.32-0.77-2.76c4.37-7.81,9.06-15.46,11.61-24.16
		c2.07-7.07,2.87-14.36,4.24-21.56C289.71,425.42,289.92,425.02,290.07,424.61z"/>
	<path class="st14" d="M225.42,288.9c-0.04-0.48,0.27-0.61,0.66-0.64c3.94,1.72,6.53,4.94,9.09,8.19
		c5.73,6.76,11.68,13.4,16.34,20.96c10.61,17.21,18.85,35.5,22.2,55.55c2.38,14.27,2.66,28.71-0.31,43.03
		c-0.18,0.07-0.42,0.1-0.49-0.03c-2.61-4.5-6.38-7.88-10.55-10.61c0.02,0.67,0.06,1.61-1.32,1.42c-0.04-0.01-0.08-0.13-0.08-0.2
		c0-0.09,0.06-0.17,0.09-0.25c1.02-9.55,1.74-19.09,1.26-28.72c-0.61-12.2-3.16-23.95-7.14-35.45
		c-5.2-15.02-12.52-28.94-21.61-41.95c-1.14-0.33-1.37-1.27-1.53-2.26C229.87,294.9,228.05,291.61,225.42,288.9z"/>
	<path class="st15" d="M320.91,416.03c-1.97-9.3-2.09-18.74-1.49-28.14c1.31-20.42,7.03-39.7,16.44-57.8
		c7.63-14.66,16.81-28.23,29.98-38.64c1.37-1.08,2.81-2.06,4.2-3.07c-29.13,34.96-43.25,74.29-36.11,120.06
		c0.04,0.98-0.68,0.81-0.9,0.37c-0.89-1.77-1.76-0.96-2.79-0.18c-1.2,0.91-2.43,1.83-3.76,2.51
		C324.18,412.31,322.67,414.3,320.91,416.03z"/>
	<path class="st16" d="M261.04,406.34c1.22,0.03,0.72-1.38,1.46-1.74c4.3,3.17,8.71,6.23,10.89,11.41
		c-2.03,13.15-6.4,25.49-12.94,37.07c-1.85,3.28-3.75,6.53-6.19,9.42c-1.37,1.62-2.77,2.14-4.93,1.2c-4.9-2.12-9.93-3.94-15.06-5.94
		c12.04-12.25,18.97-27.31,24.38-43.21C259.57,411.85,260.25,409.08,261.04,406.34z"/>
	<path class="st17" d="M320.91,416.03c0.21-2.3,1.97-3.31,3.65-4.41c2.6-1.71,5.17-3.47,7.95-5.34c0.64,0.44-0.15,2.24,1.42,2.16
		c2.17,6.64,4.29,13.29,7.07,19.71c4.38,10.13,9.97,19.48,17.62,27.51c1.23,1.29,0.93,1.72-0.51,2.34
		c-4.79,2.03-9.59,4.05-14.27,6.31c-1.58,0.76-2.09,0.23-2.96-0.9c-6.67-8.71-11.62-18.31-15.12-28.68
		C323.7,428.61,321.87,422.43,320.91,416.03z"/>
	<path class="st18" d="M545.56,416.01c0,8.99-4.47,14.14-11.04,14.87c-7.37,0.82-13.16-3.13-14.67-10.02
		c-0.61-2.77,0.22-5.17,2.21-7.12c4.43-4.31,9.52-7.92,13.53-12.67c0.54-0.64,0.9-0.6,1.49-0.01
		C541.84,405.82,545.36,411.17,545.56,416.01z"/>
	<path class="st19" d="M407.13,338.95c0.65-0.47,0.22-0.95-0.03-1.39c-5.01-9.09-6.62-19.22-8.58-29.17
		c-3.05-15.48-5.41-31.12-10.36-46.16c-3.73-11.34-8.08-22.45-16.45-31.47c1.43,0.7,2.41,1.78,3.29,3.04
		c0.87,1.25,1.91,2.37,2.81,3.6c7.74,10.6,13.47,22.22,16.89,34.87c2.49,9.2,4.25,18.6,6.51,27.86c0.88,3.62,2.23,7.13,3.78,10.7
		c0-1.58,0-3.16,0-4.75c0.85,4.19,0.61,8.51,1.53,12.71c1.65,7.51,3.05,15.07,4.57,22.61c0.4,1.99,1.06,3.91,1.67,5.89
		C410.76,344.56,408.54,342.03,407.13,338.95z"/>
	<path class="st1" d="M232.02,297.97c0.51,0.75,1.02,1.51,1.53,2.26c-0.43,1.79,0.95,2.89,1.77,4.08c2.93,4.29,5.39,8.85,8.01,13.32
		c0.39,0.67,1.48,1.63,0.49,2.3c-0.88,0.6-1.56-0.5-2.05-1.24c-4.64-6.88-9.24-13.78-13.92-20.63c-1.08-1.57-1.44-3.65-3.38-4.66
		c-0.64-0.33-0.81-1.3-0.29-1.91c0.66-0.76,1.57-0.5,2.11,0.16c1.37,1.64,2.62,3.38,3.93,5.07
		C230.68,297.32,230.76,298.5,232.02,297.97z"/>
	<path class="st1" d="M228.21,288.79c0.42-0.53,0.44-1.57,1.68-0.76c1.57,1.04,2.85,2.36,4.06,3.73c1.05,1.19-0.61,1.01-0.98,1.49
		C230.95,292.22,229.29,290.81,228.21,288.79z"/>
	<path class="st20" d="M228.21,288.79c1.58,1.49,3.17,2.97,4.75,4.46c0.56,1.19,2.38,1.52,2.21,3.21c-3.03-2.73-6.06-5.46-9.09-8.19
		c0.03-0.15,0.02-0.3-0.01-0.45C227.17,287.3,227.35,288.78,228.21,288.79z"/>
	<path class="st21" d="M61.13,431.14c-8-0.03-14.19-7.65-12.64-15.53c1.05-5.32,3.81-9.58,7.8-13.15c1.13-1.01,1.9-1.21,3.09,0.04
		c3.22,3.37,6.54,6.64,9.92,9.84c3.45,3.26,5.46,6.88,3.52,11.71C71.08,428.34,66.41,431.15,61.13,431.14z"/>
	<path class="st22" d="M189.35,304.48c0.05,0.89,0.11,1.77,0.19,3.24c1.13-5.17,3.56-9.25,4.74-13.82
		c2.6-10.11,4.74-20.35,8.1-30.25c3.63-10.69,8.75-20.6,15.82-29.42c1.77-2.21,4.07-4,6.45-6.29c-0.96,2.75-2.91,4.38-4.31,6.27
		c-7.81,10.59-11.79,22.87-15.77,35.12c-2.56,7.89-4.7,15.95-5.87,24.17c-1.2,8.41-3.1,16.65-5.02,24.88
		c-1.2,5.12-2.99,10.1-4.53,15.13c-0.14,0.46-0.23,0.86,0.24,1.17c-1.9,4.65-4.97,8.58-7.76,12.71c1.96-7.93,3.94-15.81,5.21-23.82
		c0.88-5.55,1.82-11.11,2.04-16.75C188.92,306.01,188.83,305.18,189.35,304.48z"/>
	<path class="st23" d="M260.59,77.79c1.44-5.28,3.63-10.17,6.53-14.87c13.61-22.03,47.4-24.27,62.42,3.06
		c1.42,2.57,2.45,5.36,3.66,8.04c3.91,14.69,2.35,28.99-3.28,42.93c-2.44,6.03-5.85,11.5-10.5,16.15
		c-11.86,11.87-27.52,12.99-40.94,2.89c-9.32-7.02-13.84-16.96-16.82-27.79C258.91,98.17,258.88,88,260.59,77.79z"/>
	<path class="st24" d="M348.19,199.55c5.61,1.67,11.22,3.33,17,5.05c-2.73,1.86-5.86,2.94-8.41,4.98c-0.43,1.23-1.61,1.64-2.57,2.25
		c-7.58,4.84-14.76,10.16-21.13,16.55c-5.78,5.8-11.13,11.93-15.41,18.93c-4.81,7.88-9.95,15.58-13.02,24.39
		c-2.45,6.63-4.8,13.29-6.08,20.27c-0.23,1.26-0.22,3.29-1.67,3.26c-1.41-0.02-1.03-2.02-1.16-3.18c-0.31-2.78-1.59-5.3-2.01-8.04
		c-2.39-10.31-6.65-19.85-11.95-28.96c-5.07-8.71-10.75-16.94-18.22-23.83c-1.29-1.18-2.66-2.41-3.17-4.23
		c-9.63-8.88-19.85-16.94-31.89-23.04c3.74-0.98,7.33-2.01,10.96-2.84c3.65-0.84,7.35-1.48,10.92-2.68
		c4.73-2.06,7.89,0.12,11.11,3.5c3.45,3.62,7.45,6.73,11.34,9.9c2.63,2.15,3.88,4.7,3.9,8.12c0.05,7.46,2.63,14.19,6.39,20.52
		c3.84,5.4,7.77,10.73,11.79,16c2.32,3.03,2.76,3.04,5.07-0.04c6.9-9.18,12.34-19.13,15.76-30.13c0.8-2.59,1.18-5.23,1.23-7.94
		c0.04-2.41,0.77-4.57,3.34-5.54c4.38-3.02,7.89-7.03,11.64-10.7c3.8-3.72,7.79-4.55,12.55-3.05
		C345.73,199.46,346.96,199.4,348.19,199.55z"/>
	<path class="st25" d="M291.27,235c-8.57-19-4.68-36.7,5.87-53.76c0.7-0.04,0.83,0.86,1.15,1.39c4.89,7.83,8.55,16.14,9.67,25.41
		c0.07,0.61,0.29,1.21,0.44,1.81c1.04,1.3,0.98,2.87,0.85,4.36c-0.48,5.72-1.37,11.37-3.58,16.72c-0.54,1.31-1.03,2.69-2.27,3.57
		c-0.66,0.27-1.05-0.06-1.18-0.66c-1.25-5.79-2.92-11.46-4.78-17.09c-0.11-0.32,0.12-0.68-0.05-0.88c-1.05,3.97-2.3,7.94-3.59,11.9
		c-0.69,2.12-1.8,4.12-1.71,6.46C292.13,234.68,291.87,235.09,291.27,235z"/>
	<path class="st26" d="M303.05,234.43c4.25-7.66,5.4-16,5.36-24.6c0.05-0.35,0.11-0.7,0.16-1.06c0.84,0.13,0.42,0.88,0.65,1.31
		c0.94,1.76,0.63,5.23,4.42,2.45c1.44-1.06,3.26-0.08,3.15,2.26c1.59-0.3,1.61-2.73,3.52-1.99c-1.75,1.33-2.52,3.07-2.53,5.28
		c-0.02,6.55-2.62,12.39-5.1,18.26c-3.41,8.08-8.18,15.34-13.44,22.3c-1.18,1.56-2.02,1.88-3.4,0.12
		c-4.58-5.87-9.22-11.69-12.72-18.31c1.35-0.66,1.18,0.74,1.46,1.23c1.6,2.8,3.86,4.93,6.4,6.86c-1.09-2.22-2.66-4.17-3.27-6.6
		c-0.42-1.65,0.51-2.5,1.78-1.96c2.88,1.23,2.33-0.2,1.83-1.93c-0.14-0.49-0.02-1.06-0.02-1.6c0.85-0.07,1.32,0.49,1.66,1.12
		c1.22,2.26,2.48,4.5,3.37,7.03c1.95-2.12,3.26-4.68,4.57-7.25C301.45,236.29,301.79,235.02,303.05,234.43z"/>
	<path class="st27" d="M303.05,234.43c-1.64,4.04-3.75,7.8-6.58,11.27c-2.17-3.01-3.02-6.49-5.17-9.23
		c-0.01-0.5-0.02-0.99-0.03-1.49c0.82-6.98,4.07-13.22,6.04-19.96C299.75,221.39,301.96,227.74,303.05,234.43z"/>
	<path class="st28" d="M95.6,515.28c-4.14-2.33-4.03-2.23-0.87-5.71c10.98-12.05,25.17-17.54,40.76-20.24
		c0.6-0.1,1.19-0.31,1.79-0.46c5.45-0.39,10.9-1.02,16.36-1.11c18.9-0.3,37.27,3.07,55.38,8.22c10.47,2.97,20.64,6.63,30.32,11.65
		c2.69,1.4,4.4,3.11,4.66,6.29c0.2,2.48,0.89,4.92,1.36,7.37c0.35,1.75-0.22,2.69-2.1,3.1c-3.42,0.75-6.78,1.78-10.17,2.7
		c-0.72,0.31-1.34,0.29-0.93-0.69c0.32-0.76,1.35-0.79,2.18-1.51c-5.15-2.77-10.48-4.83-15.9-6.57c-12.14-3.89-24.42-7.19-37.16-8.5
		c-12.13-1.25-24.27-2.46-36.47-1.84c-15.5,0.79-30.85,2.93-46.08,5.95C97.53,514.17,96.74,515.08,95.6,515.28z"/>
	<path class="st29" d="M95.6,515.28c0.05-1.04,0.2-1.58,1.61-1.87c10.58-2.12,21.21-4.04,31.94-5.11
		c10.59-1.05,21.27-1.84,31.92-1.13c18.19,1.22,36.26,3.25,53.7,9.12c6.21,2.09,12.38,4.19,18.28,7.03c1.03,0.5,1.98,1.14,3.24,1.88
		c-1.48,0.57-2.63,1.01-3.78,1.47c-0.01,0,0.02,0.2,0.07,0.23c0.16,0.08,0.33,0.13,0.5,0.19c-7.12,2.54-14.56,3.71-21.99,4.75
		c-15.38,2.15-30.87,2.5-46.37,2.21c-22.32-0.42-43.76-4.57-63.61-15.3c-0.77-0.42-1.5-0.92-2.25-1.39
		C97.78,516.66,96.69,515.97,95.6,515.28z"/>
	<path class="st30" d="M260.39,226.98c16.94,15.48,27.91,34.55,34.04,56.54c-0.45,1.74,0.43,3.25,0.84,4.84
		c0.19,0.73,0.44,1.47-0.19,1.98c-0.78,0.62-1.26-0.21-1.79-0.62c-2.18-1.72-4.65-1.11-5.69,1.54c-0.55,1.39-1.08,2.47-2.84,1.97
		c-3.65-8.26-7.35-16.51-11.99-24.26c-6.44-10.77-13.94-20.78-22.79-29.73c-0.24-0.24-0.34-0.62-0.51-0.93
		c1.86,0.24,3.48,0.8,4.05,2.88c0.19,0.71,0.51,1.48,1.46,1.04c0.75-0.34,0.65-1.07,0.23-1.6c-1.99-2.55-0.5-4.2,1.41-5.78
		c0.48-0.4,1.01-0.81,1.31-1.33c1.02-1.83,2.44-2.3,4.45-1.23C262.48,230.05,259.72,229.16,260.39,226.98z"/>
	<path class="st2" d="M304.17,271.12c3.29-9.51,8.72-17.89,14.23-26.16c9.65-14.47,22.36-25.83,37.18-34.86
		c0.37-0.23,0.81-0.35,1.21-0.53c0.81,1.19,1.61,2.01,3.39,1.63c1.65-0.35,4.66,4.66,3.83,6.37c-0.59,1.23-0.18,1.98,0.49,2.83
		c-11.94,10.66-24.01,21.18-33.59,34.18c-3.95,5.36-7.11,11.19-10.48,16.89c-1.31,2.22-2.56,4.47-3.84,6.71
		c-0.61,0.13-0.75,0.71-1.1,1.09c-1.69,1.87-2.42,1.72-3.46-0.66c-1.03-2.36-4.46-3.48-6.62-2.15c-0.67,0.41-1.32,1.07-2.16,0.38
		c-0.84-0.69-0.22-1.47-0.07-2.22C303.44,273.43,304.27,272.4,304.17,271.12z"/>
	<path class="st31" d="M304.17,271.12c0.77,1.38-0.43,2.46-0.58,3.7c-0.07,0.58-0.7,1.21-0.03,1.71c0.74,0.55,1.06-0.31,1.51-0.65
		c0.81-0.61,1.6-2.17,2.58-1.24c1.6,1.51,4.95,0.8,5.12,3.94c0.1,1.83,0.63,1.57,1.91,0.86c0.68-0.38,0.61-1.95,1.92-1.25
		c-8.43,16.16-15.91,37.6-19.3,55.74c-0.99-3.34-1.82-6.02-2.57-8.73c-2.97-10.76-5.84-21.56-9.96-31.96
		c1.55-0.55,2.05-1.6,2.38-3.27c0.41-2.09,5.05-2.67,6.49-1.03c0.33,0.38,0.34,1.06,1.18,1.14c0.62-2.23-1.64-4.32-0.39-6.55
		c0.73,3.72,2.37,7.25,2.53,11.2C298.55,286.59,300.92,278.72,304.17,271.12z"/>
</g>
</svg>
